<svg width="137" height="15" fill="none" xmlns="http://www.w3.org/2000/svg"><path d="M2.5 2.48v4.58h9.98v1.68H2.5v4.58H13V15H.5V.8H13v1.68H2.5zM17.483.8h2v12.52h9.72V15h-11.72V.8zm15.696 0h2V15h-2V.8zm12.235 1.68h-6.2V.8h14.44v1.68h-6.24V15h-2V2.48zm14.177 0v4.58h9.98v1.68h-9.98v4.58h10.5V15h-12.5V.8h12.5v1.68h-10.5zm24.279 0v4.58h9.98v1.68h-9.98V15h-2V.8h12.5v1.68h-10.5zM98.737.8h2V15h-2V.8zm15.216 9.04h-6.02V15h-2V.8h8.74c1.013 0 1.893.2 2.64.6.76.387 1.34.927 1.74 1.62.4.68.6 1.447.6 2.3 0 1.067-.32 1.987-.96 2.76-.627.773-1.494 1.287-2.6 1.54l4.16 5.38h-2.36l-3.94-5.16zm-6.02-1.68h6.12c1.106 0 1.973-.227 2.6-.68.626-.453.94-1.12.94-2v-.32c0-.88-.314-1.547-.94-2-.627-.453-1.494-.68-2.6-.68h-6.12v5.68zm18.213-5.68v4.58h9.98v1.68h-9.98v4.58h10.5V15h-12.5V.8h12.5v1.68h-10.5z" fill="#fff"/></svg>