<svg width="277" height="70" fill="none" xmlns="http://www.w3.org/2000/svg"><path d="M3.5 29.48v4.58h9.98v1.68H3.5v4.58H14V42H1.5V27.8H14v1.68H3.5zm14.983-1.68h2v12.52h9.72V42h-11.72V27.8zm15.696 0h2V42h-2V27.8zm12.235 1.68h-6.2V27.8h14.44v1.68h-6.24V42h-2V29.48zm14.177 0v4.58h9.98v1.68h-9.98v4.58h10.5V42h-12.5V27.8h12.5v1.68h-10.5zm24.279 0v4.58h9.98v1.68h-9.98V42h-2V27.8h12.5v1.68h-10.5zm14.867-1.68h2V42h-2V27.8zm15.216 9.04h-6.02V42h-2V27.8h8.74c1.013 0 1.893.2 2.64.6.76.387 1.34.927 1.74 1.62.4.68.6 1.447.6 2.3 0 1.067-.32 1.987-.96 2.76-.627.773-1.494 1.287-2.6 1.54l4.16 5.38h-2.36l-3.94-5.16zm-6.02-1.68h6.12c1.106 0 1.973-.227 2.6-.68.626-.453.94-1.12.94-2v-.32c0-.88-.314-1.547-.94-2-.627-.453-1.494-.68-2.6-.68h-6.12v5.68zm18.213-5.68v4.58h9.98v1.68h-9.98v4.58h10.5V42h-12.5V27.8h12.5v1.68h-10.5z" fill="#fff"/><path d="M184.696 30l-.768-2.172h-3.84L179.32 30h-1.116l3.084-8.52h1.452l3.096 8.52h-1.14zm-4.272-3.108h3.168l-.396-1.116c-.536-1.432-.936-2.588-1.2-3.468-.2.68-.548 1.712-1.044 3.096l-.132.384-.396 1.104zm12.143 1.452c0 .504-.176.908-.528 1.212-.352.296-.836.444-1.452.444h-3.132v-5.904h2.988c.592 0 1.068.14 1.428.42.36.272.54.648.54 1.128 0 .312-.092.584-.276.816-.176.232-.42.396-.732.492.36.088.644.256.852.504.208.24.312.536.312.888zm-4.092-3.432v1.704h1.824c.36 0 .632-.076.816-.228.184-.16.276-.38.276-.66 0-.544-.364-.816-1.092-.816h-1.824zm3.06 3.372a.788.788 0 00-.324-.672c-.208-.168-.516-.252-.924-.252h-1.812v1.812h1.836c.816 0 1.224-.296 1.224-.888zm7.229-3.348h-1.968V30h-1.032v-5.064h-1.98v-.84h4.98v.84zm6.055-.132c.544.576.816 1.324.816 2.244 0 .92-.272 1.672-.816 2.256-.544.576-1.244.864-2.1.864-.856 0-1.56-.288-2.112-.864-.544-.584-.816-1.336-.816-2.256 0-.92.272-1.668.816-2.244.552-.584 1.256-.876 2.112-.876.856 0 1.556.292 2.1.876zm-3.468.612c-.336.416-.504.96-.504 1.632 0 .672.168 1.216.504 1.632.344.416.8.624 1.368.624.568 0 1.02-.204 1.356-.612.336-.416.504-.964.504-1.644 0-.68-.168-1.224-.504-1.632-.336-.416-.788-.624-1.356-.624-.568 0-1.024.208-1.368.624zm11.346-1.32h1.512V30h-.972v-2.7c0-.256.008-.872.024-1.848l.012-.648-.828 2.244-1.14 2.952h-.912l-1.128-2.952c-.232-.592-.512-1.336-.84-2.232.032.864.048 1.692.048 2.484V30h-.972v-5.904h1.548l1.008 2.628c.232.6.504 1.364.816 2.292.256-.768.528-1.528.816-2.28l1.008-2.64zm8.536 1.8V30h-.936v-.732c-.416.616-1.084.924-2.004.924-.648 0-1.164-.14-1.548-.42-.376-.28-.564-.692-.564-1.236 0-.632.236-1.092.708-1.38.488-.296 1.168-.52 2.04-.672l1.32-.24v-.3c0-.36-.128-.644-.384-.852-.248-.208-.58-.312-.996-.312-.36 0-.684.076-.972.228-.28.144-.604.4-.972.768l-.66-.588c.712-.84 1.568-1.26 2.568-1.26.752 0 1.34.18 1.764.54.424.352.636.828.636 1.428zm-.984 1.896v-.78l-1.08.216c-.736.152-1.244.308-1.524.468-.272.16-.424.428-.456.804 0 .272.104.48.312.624.216.144.516.216.9.216.536 0 .976-.14 1.32-.42.352-.288.528-.664.528-1.128zm7.387-2.856h-1.968V30h-1.032v-5.064h-1.98v-.84h4.98v.84zm5.713-.84h1.116V30h-.972v-2.424c0-.976.012-1.792.036-2.448a64.652 64.652 0 01-1.368 2.184L230.409 30h-1.104v-5.904h.972v2.616c0 .776-.012 1.512-.036 2.208a76.166 76.166 0 011.356-2.136l1.752-2.688zm6.821 0h1.032V30h-1.032v-2.388c-.432.2-.964.3-1.596.3-.752 0-1.3-.148-1.644-.444-.344-.304-.516-.768-.516-1.392v-1.98h1.032v1.932c0 .352.096.612.288.78.2.168.524.252.972.252.576 0 1.064-.096 1.464-.288v-2.676zm7.785 4.224l.612.624c-.424.448-.832.764-1.224.948-.392.184-.84.276-1.344.276-.888 0-1.6-.28-2.136-.84-.528-.568-.792-1.316-.792-2.244 0-.928.256-1.684.768-2.268.52-.592 1.204-.888 2.052-.888.84 0 1.492.252 1.956.756.472.504.708 1.2.708 2.088 0 .112-.008.264-.024.456h-4.428c.032.624.212 1.128.54 1.512.328.376.784.564 1.368.564.368 0 .684-.072.948-.216.264-.136.596-.392.996-.768zm-3.828-1.86h3.408c-.024-.528-.184-.944-.48-1.248-.288-.304-.68-.456-1.176-.456-.48 0-.872.148-1.176.444-.304.296-.496.716-.576 1.26zm8.81-1.668c-.56 0-1 .22-1.32.66-.32.432-.48.964-.48 1.596 0 .624.156 1.156.468 1.596.32.432.768.648 1.344.648.32 0 .608-.068.864-.204.264-.144.564-.404.9-.78l.684.576c-.376.472-.752.804-1.128.996-.376.192-.816.288-1.32.288-.864 0-1.56-.284-2.088-.852-.52-.568-.78-1.324-.78-2.268 0-.936.264-1.688.792-2.256.536-.576 1.228-.864 2.076-.864.488 0 .912.084 1.272.252.368.168.732.456 1.092.864l-.672.636c-.304-.328-.588-.556-.852-.684a1.787 1.787 0 00-.852-.204zm8.16 5.208l-1.908-2.628h-1.092V30h-1.032v-5.904h1.032v2.424h1.092l1.776-2.424h1.116l-2.076 2.808L262.261 30h-1.164zm6.787-5.904H269V30h-.972v-2.424c0-.976.012-1.792.036-2.448a64.652 64.652 0 01-1.368 2.184L264.944 30h-1.104v-5.904h.972v2.616c0 .776-.012 1.512-.036 2.208a76.166 76.166 0 011.356-2.136l1.752-2.688zm7.877 4.224l.612.624c-.424.448-.832.764-1.224.948-.392.184-.84.276-1.344.276-.888 0-1.6-.28-2.136-.84-.528-.568-.792-1.316-.792-2.244 0-.928.256-1.684.768-2.268.52-.592 1.204-.888 2.052-.888.84 0 1.492.252 1.956.756.472.504.708 1.2.708 2.088 0 .112-.008.264-.024.456h-4.428c.032.624.212 1.128.54 1.512.328.376.784.564 1.368.564.368 0 .684-.072.948-.216.264-.136.596-.392.996-.768zm-3.828-1.86h3.408c-.024-.528-.184-.944-.48-1.248-.288-.304-.68-.456-1.176-.456-.48 0-.872.148-1.176.444-.304.296-.496.716-.576 1.26zM183.58 42.936c.472.52.708 1.236.708 2.148 0 .912-.268 1.652-.804 2.22-.536.568-1.228.852-2.076.852-.928 0-1.648-.324-2.16-.972-.512-.656-.768-1.592-.768-2.808 0-1.616.248-2.792.744-3.528.504-.744 1.396-1.176 2.676-1.296l1.956-.168.072.972-1.932.168c-.936.072-1.592.324-1.968.756-.368.424-.588 1.172-.66 2.244a2.26 2.26 0 01.888-1.008c.4-.248.864-.372 1.392-.372.816 0 1.46.264 1.932.792zm-.348 2.172c0-.648-.16-1.16-.48-1.536-.312-.376-.744-.564-1.296-.564s-1.012.196-1.38.588c-.36.384-.54.888-.54 1.512 0 .664.168 1.196.504 1.596.336.392.788.588 1.356.588.56 0 1.004-.196 1.332-.588.336-.4.504-.932.504-1.596zm6.967-3.012h1.116V48h-.972v-2.424c0-.976.012-1.792.036-2.448a64.652 64.652 0 01-1.368 2.184L187.259 48h-1.104v-5.904h.972v2.616c0 .776-.012 1.512-.036 2.208a76.166 76.166 0 011.356-2.136l1.752-2.688zm8.02.708c.544.576.816 1.324.816 2.244 0 .92-.272 1.672-.816 2.256-.544.576-1.244.864-2.1.864-.856 0-1.56-.288-2.112-.864-.544-.584-.816-1.336-.816-2.256 0-.92.272-1.668.816-2.244.552-.584 1.256-.876 2.112-.876.856 0 1.556.292 2.1.876zm-3.468.612c-.336.416-.504.96-.504 1.632 0 .672.168 1.216.504 1.632.344.416.8.624 1.368.624.568 0 1.02-.204 1.356-.612.336-.416.504-.964.504-1.644 0-.68-.168-1.224-.504-1.632-.336-.416-.788-.624-1.356-.624-.568 0-1.024.208-1.368.624zM204.933 48l-1.908-2.628h-1.092V48h-1.032v-5.904h1.032v2.424h1.092l1.776-2.424h1.116l-2.076 2.808L206.097 48h-1.164zm7.391-4.104V48h-.936v-.732c-.416.616-1.084.924-2.004.924-.648 0-1.164-.14-1.548-.42-.376-.28-.564-.692-.564-1.236 0-.632.236-1.092.708-1.38.488-.296 1.168-.52 2.04-.672l1.32-.24v-.3c0-.36-.128-.644-.384-.852-.248-.208-.58-.312-.996-.312-.36 0-.684.076-.972.228-.28.144-.604.4-.972.768l-.66-.588c.712-.84 1.568-1.26 2.568-1.26.752 0 1.34.18 1.764.54.424.352.636.828.636 1.428zm-.984 1.896v-.78l-1.08.216c-.736.152-1.244.308-1.524.468-.272.16-.424.428-.456.804 0 .272.104.48.312.624.216.144.516.216.9.216.536 0 .976-.14 1.32-.42.352-.288.528-.664.528-1.128zm8.403-3.696h1.512V48h-.972v-2.7c0-.256.008-.872.024-1.848l.012-.648-.828 2.244-1.14 2.952h-.912l-1.128-2.952c-.232-.592-.512-1.336-.84-2.232.032.864.048 1.692.048 2.484V48h-.972v-5.904h1.548l1.008 2.628c.232.6.504 1.364.816 2.292.256-.768.528-1.528.816-2.28l1.008-2.64zm7.815 0h1.116V48h-.972v-2.424c0-.976.012-1.792.036-2.448a64.652 64.652 0 01-1.368 2.184L224.618 48h-1.104v-5.904h.972v2.616c0 .776-.012 1.512-.036 2.208a76.166 76.166 0 011.356-2.136l1.752-2.688zM235.866 48h-1.032v-2.628h-2.868V48h-1.032v-5.904h1.032v2.424h2.868v-2.424h1.032V48zm2.266 0v-5.904h1.032v1.98h1.68c.664 0 1.196.18 1.596.54.408.352.612.828.612 1.428s-.204 1.076-.612 1.428c-.4.352-.932.528-1.596.528h-2.712zm1.032-.852h1.512c.88 0 1.32-.368 1.32-1.104 0-.744-.44-1.116-1.32-1.116h-1.512v2.22zm5.688-5.052V48h-1.032v-5.904h1.032z" fill="#6D6D6D"/></svg>