<svg width="50" height="50" fill="none" xmlns="http://www.w3.org/2000/svg"><g clip-path="url(#clip0_64:206)" fill="#fff"><path d="M8.021 23.725c-2.275 2.842-3.529 6.451-3.529 10.162C4.492 42.772 11.721 50 20.606 50c8.884 0 16.113-7.228 16.113-16.113 0-3.711-1.254-7.32-3.53-10.162L20.607 8.008 8.02 23.725zM33.79 33.887c0 7.27-5.914 13.183-13.183 13.183-7.27 0-13.184-5.914-13.184-13.183 0-3.048 1.025-6.006 2.886-8.33l10.298-12.861 10.297 12.86c1.861 2.325 2.886 5.283 2.886 8.33zm11.718-22.07c0-1.682-.553-3.26-1.597-4.566L38.184 0l-5.728 7.25a7.235 7.235 0 00-1.597 4.567c0 4.038 3.286 7.324 7.325 7.324 4.038 0 7.324-3.286 7.324-7.324zm-11.719 0c0-1.01.331-1.958.957-2.74l3.438-4.35 3.437 4.35a4.34 4.34 0 01.957 2.74 4.4 4.4 0 01-4.395 4.394 4.4 4.4 0 01-4.394-4.394z"/></g><defs><clipPath id="clip0_64:206"><path fill="#fff" d="M0 0h50v50H0z"/></clipPath></defs></svg>