<svg width="20" height="20" fill="none" xmlns="http://www.w3.org/2000/svg"><g clip-path="url(#clip0_71:302)"><path d="M19.414 0h-5a.586.586 0 00-.586.585V2.93c0 .324.262.586.586.586h.742v7.851a5.129 5.129 0 01-3.76 4.934 5.278 5.278 0 01-3.662-.328 5.115 5.115 0 01-2.89-4.607V3.515h.742a.586.586 0 00.586-.586V.585A.586.586 0 005.586 0h-5A.586.586 0 000 .585V2.93c0 .324.262.586.586.586h.742v7.852c0 2.237.89 4.417 2.45 6.02a8.674 8.674 0 005.972 2.61c2.255.054 4.457-.743 6.123-2.273a8.677 8.677 0 002.799-6.357V3.515h.742A.586.586 0 0020 2.93V.585A.586.586 0 0019.414 0zM1.172 1.17H5v1.172H1.172V1.171zm2.5 2.344v1.172H2.5V3.515h1.172zm13.836 7.852c-.044.76-.15 1.51-.375 2.244a7.416 7.416 0 01-2.57 3.69c-2.046 1.563-4.889 1.955-7.287 1.027a7.542 7.542 0 01-4.396-4.61 7.457 7.457 0 01-.38-2.351V5.859h1.172v5.508a6.347 6.347 0 003.172 5.46c2.108 1.209 4.87 1.09 6.847-.337a6.326 6.326 0 002.287-3.138c.782-2.386.104-4.993.371-7.49l1.168-.001c-.158 1.823.094 3.692-.01 5.506zm-.008-6.68h-1.172V3.515H17.5v1.172zm1.328-2.344H15V1.171h3.828v1.172z" fill="#FFCF7A"/></g><defs><clipPath id="clip0_71:302"><path fill="#fff" d="M0 0h20v20H0z"/></clipPath></defs></svg>