<svg width="30" height="30" fill="none" xmlns="http://www.w3.org/2000/svg"><path d="M30 3.57a3.507 3.507 0 00-1.035-2.535A3.506 3.506 0 0026.43 0c-.957.01-1.85.396-2.512 1.087l-5.252 5.472L4.926 2.01.87 6.07l11.482 7.07-4.725 4.924-3.708-.609L0 21.372l6.39 2.238L8.628 30l3.918-3.918-.609-3.708 4.924-4.725 7.07 11.482 4.058-4.057-4.547-13.74 5.471-5.251A3.507 3.507 0 0030 3.57zm-2.305 1.243l-6.273 6.02 4.555 13.764-1.716 1.716-7.045-11.443-7.165 6.875.613 3.731-1.3 1.3L7.77 22.23l-4.547-1.592 1.3-1.3 3.73.612 6.877-7.165L3.686 5.74l1.716-1.716 13.764 4.555 6.02-6.273a1.76 1.76 0 011.261-.545h.02c.473 0 .918.184 1.253.52a1.767 1.767 0 01-.026 2.533z" fill="#fff"/></svg>