<svg width="20" height="20" fill="none" xmlns="http://www.w3.org/2000/svg"><g clip-path="url(#clip0_71:295)" fill="#FFCF7A"><path d="M8.889 0h2.222v11.11H8.89V0z"/><path d="M15 1.338l-1.112 1.924A7.808 7.808 0 0117.778 10c0 4.288-3.49 7.777-7.778 7.777-4.289 0-7.778-3.489-7.778-7.777 0-2.769 1.49-5.35 3.89-6.738L4.999 1.338A10.037 10.037 0 000 10c0 5.514 4.486 10 10 10s10-4.486 10-10c0-3.56-1.916-6.878-5-8.662z"/></g><defs><clipPath id="clip0_71:295"><path fill="#fff" d="M0 0h20v20H0z"/></clipPath></defs></svg>