<svg width="96" height="10" viewBox="0 0 96 10" fill="none" xmlns="http://www.w3.org/2000/svg">
<path d="M1.45 1.236V4.442H8.436V5.618H1.45V8.824H8.8V10H0.05V0.0599995H8.8V1.236H1.45ZM11.938 0.0599995H13.338V8.824H20.142V10H11.938V0.0599995ZM22.9252 0.0599995H24.3252V10H22.9252V0.0599995ZM31.49 1.236H27.15V0.0599995H37.258V1.236H32.89V10H31.49V1.236ZM41.414 1.236V4.442H48.4V5.618H41.414V8.824H48.764V10H40.014V0.0599995H48.764V1.236H41.414ZM58.4087 1.236V4.442H65.3947V5.618H58.4087V10H57.0087V0.0599995H65.7587V1.236H58.4087ZM68.8163 0.0599995H70.2163V10H68.8163V0.0599995ZM79.467 6.388H75.253V10H73.853V0.0599995H79.971C80.6803 0.0599995 81.2963 0.2 81.819 0.48C82.351 0.750666 82.757 1.12867 83.037 1.614C83.317 2.09 83.457 2.62667 83.457 3.224C83.457 3.97067 83.233 4.61467 82.785 5.156C82.3463 5.69733 81.7396 6.05667 80.965 6.234L83.877 10H82.225L79.467 6.388ZM75.253 5.212H79.537C80.3116 5.212 80.9183 5.05333 81.357 4.736C81.7956 4.41867 82.015 3.952 82.015 3.336V3.112C82.015 2.496 81.7956 2.02933 81.357 1.712C80.9183 1.39467 80.3116 1.236 79.537 1.236H75.253V5.212ZM88.0023 1.236V4.442H94.9883V5.618H88.0023V8.824H95.3523V10H86.6023V0.0599995H95.3523V1.236H88.0023Z" fill="white"/>
</svg>
