<svg width="277" height="70" viewBox="0 0 277 70" fill="none" xmlns="http://www.w3.org/2000/svg">
<path d="M3.5 29.48V34.06H13.48V35.74H3.5V40.32H14V42H1.5V27.8H14V29.48H3.5ZM18.4828 27.8H20.4828V40.32H30.2028V42H18.4828V27.8ZM34.1789 27.8H36.1789V42H34.1789V27.8ZM46.4142 29.48H40.2142V27.8H54.6542V29.48H48.4142V42H46.4142V29.48ZM60.5914 29.48V34.06H70.5714V35.74H60.5914V40.32H71.0914V42H58.5914V27.8H71.0914V29.48H60.5914ZM84.8695 29.48V34.06H94.8495V35.74H84.8695V42H82.8695V27.8H95.3695V29.48H84.8695ZM99.7375 27.8H101.737V42H99.7375V27.8ZM114.953 36.84H108.933V42H106.933V27.8H115.673C116.686 27.8 117.566 28 118.313 28.4C119.073 28.7867 119.653 29.3267 120.053 30.02C120.453 30.7 120.653 31.4667 120.653 32.32C120.653 33.3867 120.333 34.3067 119.693 35.08C119.066 35.8533 118.199 36.3667 117.093 36.62L121.253 42H118.893L114.953 36.84ZM108.933 35.16H115.053C116.159 35.16 117.026 34.9333 117.653 34.48C118.279 34.0267 118.593 33.36 118.593 32.48V32.16C118.593 31.28 118.279 30.6133 117.653 30.16C117.026 29.7067 116.159 29.48 115.053 29.48H108.933V35.16ZM127.146 29.48V34.06H137.126V35.74H127.146V40.32H137.646V42H125.146V27.8H137.646V29.48H127.146Z" fill="white"/>
<path d="M184.696 30L183.928 27.828H180.088L179.32 30H178.204L181.288 21.48H182.74L185.836 30H184.696ZM180.424 26.892H183.592L183.196 25.776C182.66 24.344 182.26 23.188 181.996 22.308C181.796 22.988 181.448 24.02 180.952 25.404L180.82 25.788L180.424 26.892ZM192.567 28.344C192.567 28.848 192.391 29.252 192.039 29.556C191.687 29.852 191.203 30 190.587 30H187.455V24.096H190.443C191.035 24.096 191.511 24.236 191.871 24.516C192.231 24.788 192.411 25.164 192.411 25.644C192.411 25.956 192.319 26.228 192.135 26.46C191.959 26.692 191.715 26.856 191.403 26.952C191.763 27.04 192.047 27.208 192.255 27.456C192.463 27.696 192.567 27.992 192.567 28.344ZM188.475 24.912V26.616H190.299C190.659 26.616 190.931 26.54 191.115 26.388C191.299 26.228 191.391 26.008 191.391 25.728C191.391 25.184 191.027 24.912 190.299 24.912H188.475ZM191.535 28.284C191.535 27.996 191.427 27.772 191.211 27.612C191.003 27.444 190.695 27.36 190.287 27.36H188.475V29.172H190.311C191.127 29.172 191.535 28.876 191.535 28.284ZM198.764 24.936H196.796V30H195.764V24.936H193.784V24.096H198.764V24.936ZM204.819 24.804C205.363 25.38 205.635 26.128 205.635 27.048C205.635 27.968 205.363 28.72 204.819 29.304C204.275 29.88 203.575 30.168 202.719 30.168C201.863 30.168 201.159 29.88 200.607 29.304C200.063 28.72 199.791 27.968 199.791 27.048C199.791 26.128 200.063 25.38 200.607 24.804C201.159 24.22 201.863 23.928 202.719 23.928C203.575 23.928 204.275 24.22 204.819 24.804ZM201.351 25.416C201.015 25.832 200.847 26.376 200.847 27.048C200.847 27.72 201.015 28.264 201.351 28.68C201.695 29.096 202.151 29.304 202.719 29.304C203.287 29.304 203.739 29.1 204.075 28.692C204.411 28.276 204.579 27.728 204.579 27.048C204.579 26.368 204.411 25.824 204.075 25.416C203.739 25 203.287 24.792 202.719 24.792C202.151 24.792 201.695 25 201.351 25.416ZM212.697 24.096H214.209V30H213.237V27.3C213.237 27.044 213.245 26.428 213.261 25.452L213.273 24.804L212.445 27.048L211.305 30H210.393L209.265 27.048C209.033 26.456 208.753 25.712 208.425 24.816C208.457 25.68 208.473 26.508 208.473 27.3V30H207.501V24.096H209.049L210.057 26.724C210.289 27.324 210.561 28.088 210.873 29.016C211.129 28.248 211.401 27.488 211.689 26.736L212.697 24.096ZM221.233 25.896V30H220.297V29.268C219.881 29.884 219.213 30.192 218.293 30.192C217.645 30.192 217.129 30.052 216.745 29.772C216.369 29.492 216.181 29.08 216.181 28.536C216.181 27.904 216.417 27.444 216.889 27.156C217.377 26.86 218.057 26.636 218.929 26.484L220.249 26.244V25.944C220.249 25.584 220.121 25.3 219.865 25.092C219.617 24.884 219.285 24.78 218.869 24.78C218.509 24.78 218.185 24.856 217.897 25.008C217.617 25.152 217.293 25.408 216.925 25.776L216.265 25.188C216.977 24.348 217.833 23.928 218.833 23.928C219.585 23.928 220.173 24.108 220.597 24.468C221.021 24.82 221.233 25.296 221.233 25.896ZM220.249 27.792V27.012L219.169 27.228C218.433 27.38 217.925 27.536 217.645 27.696C217.373 27.856 217.221 28.124 217.189 28.5C217.189 28.772 217.293 28.98 217.501 29.124C217.717 29.268 218.017 29.34 218.401 29.34C218.937 29.34 219.377 29.2 219.721 28.92C220.073 28.632 220.249 28.256 220.249 27.792ZM227.636 24.936H225.668V30H224.636V24.936H222.656V24.096H227.636V24.936ZM233.349 24.096H234.465V30H233.493V27.576C233.493 26.6 233.505 25.784 233.529 25.128C233.033 25.952 232.577 26.68 232.161 27.312L230.409 30H229.305V24.096H230.277V26.712C230.277 27.488 230.265 28.224 230.241 28.92C230.865 27.912 231.317 27.2 231.597 26.784L233.349 24.096ZM240.17 24.096H241.202V30H240.17V27.612C239.738 27.812 239.206 27.912 238.574 27.912C237.822 27.912 237.274 27.764 236.93 27.468C236.586 27.164 236.414 26.7 236.414 26.076V24.096H237.446V26.028C237.446 26.38 237.542 26.64 237.734 26.808C237.934 26.976 238.258 27.06 238.706 27.06C239.282 27.06 239.77 26.964 240.17 26.772V24.096ZM247.955 28.32L248.567 28.944C248.143 29.392 247.735 29.708 247.343 29.892C246.951 30.076 246.503 30.168 245.999 30.168C245.111 30.168 244.399 29.888 243.863 29.328C243.335 28.76 243.071 28.012 243.071 27.084C243.071 26.156 243.327 25.4 243.839 24.816C244.359 24.224 245.043 23.928 245.891 23.928C246.731 23.928 247.383 24.18 247.847 24.684C248.319 25.188 248.555 25.884 248.555 26.772C248.555 26.884 248.547 27.036 248.531 27.228H244.103C244.135 27.852 244.315 28.356 244.643 28.74C244.971 29.116 245.427 29.304 246.011 29.304C246.379 29.304 246.695 29.232 246.959 29.088C247.223 28.952 247.555 28.696 247.955 28.32ZM244.127 26.46H247.535C247.511 25.932 247.351 25.516 247.055 25.212C246.767 24.908 246.375 24.756 245.879 24.756C245.399 24.756 245.007 24.904 244.703 25.2C244.399 25.496 244.207 25.916 244.127 26.46ZM252.937 24.792C252.377 24.792 251.937 25.012 251.617 25.452C251.297 25.884 251.137 26.416 251.137 27.048C251.137 27.672 251.293 28.204 251.605 28.644C251.925 29.076 252.373 29.292 252.949 29.292C253.269 29.292 253.557 29.224 253.813 29.088C254.077 28.944 254.377 28.684 254.713 28.308L255.397 28.884C255.021 29.356 254.645 29.688 254.269 29.88C253.893 30.072 253.453 30.168 252.949 30.168C252.085 30.168 251.389 29.884 250.861 29.316C250.341 28.748 250.081 27.992 250.081 27.048C250.081 26.112 250.345 25.36 250.873 24.792C251.409 24.216 252.101 23.928 252.949 23.928C253.437 23.928 253.861 24.012 254.221 24.18C254.589 24.348 254.953 24.636 255.313 25.044L254.641 25.68C254.337 25.352 254.053 25.124 253.789 24.996C253.533 24.86 253.249 24.792 252.937 24.792ZM261.097 30L259.189 27.372H258.097V30H257.065V24.096H258.097V26.52H259.189L260.965 24.096H262.081L260.005 26.904L262.261 30H261.097ZM267.884 24.096H269V30H268.028V27.576C268.028 26.6 268.04 25.784 268.064 25.128C267.568 25.952 267.112 26.68 266.696 27.312L264.944 30H263.84V24.096H264.812V26.712C264.812 27.488 264.8 28.224 264.776 28.92C265.4 27.912 265.852 27.2 266.132 26.784L267.884 24.096ZM275.761 28.32L276.373 28.944C275.949 29.392 275.541 29.708 275.149 29.892C274.757 30.076 274.309 30.168 273.805 30.168C272.917 30.168 272.205 29.888 271.669 29.328C271.141 28.76 270.877 28.012 270.877 27.084C270.877 26.156 271.133 25.4 271.645 24.816C272.165 24.224 272.849 23.928 273.697 23.928C274.537 23.928 275.189 24.18 275.653 24.684C276.125 25.188 276.361 25.884 276.361 26.772C276.361 26.884 276.353 27.036 276.337 27.228H271.909C271.941 27.852 272.121 28.356 272.449 28.74C272.777 29.116 273.233 29.304 273.817 29.304C274.185 29.304 274.501 29.232 274.765 29.088C275.029 28.952 275.361 28.696 275.761 28.32ZM271.933 26.46H275.341C275.317 25.932 275.157 25.516 274.861 25.212C274.573 24.908 274.181 24.756 273.685 24.756C273.205 24.756 272.813 24.904 272.509 25.2C272.205 25.496 272.013 25.916 271.933 26.46ZM183.58 42.936C184.052 43.456 184.288 44.172 184.288 45.084C184.288 45.996 184.02 46.736 183.484 47.304C182.948 47.872 182.256 48.156 181.408 48.156C180.48 48.156 179.76 47.832 179.248 47.184C178.736 46.528 178.48 45.592 178.48 44.376C178.48 42.76 178.728 41.584 179.224 40.848C179.728 40.104 180.62 39.672 181.9 39.552L183.856 39.384L183.928 40.356L181.996 40.524C181.06 40.596 180.404 40.848 180.028 41.28C179.66 41.704 179.44 42.452 179.368 43.524C179.56 43.1 179.856 42.764 180.256 42.516C180.656 42.268 181.12 42.144 181.648 42.144C182.464 42.144 183.108 42.408 183.58 42.936ZM183.232 45.108C183.232 44.46 183.072 43.948 182.752 43.572C182.44 43.196 182.008 43.008 181.456 43.008C180.904 43.008 180.444 43.204 180.076 43.596C179.716 43.98 179.536 44.484 179.536 45.108C179.536 45.772 179.704 46.304 180.04 46.704C180.376 47.096 180.828 47.292 181.396 47.292C181.956 47.292 182.4 47.096 182.728 46.704C183.064 46.304 183.232 45.772 183.232 45.108ZM190.199 42.096H191.315V48H190.343V45.576C190.343 44.6 190.355 43.784 190.379 43.128C189.883 43.952 189.427 44.68 189.011 45.312L187.259 48H186.155V42.096H187.127V44.712C187.127 45.488 187.115 46.224 187.091 46.92C187.715 45.912 188.167 45.2 188.447 44.784L190.199 42.096ZM198.219 42.804C198.763 43.38 199.035 44.128 199.035 45.048C199.035 45.968 198.763 46.72 198.219 47.304C197.675 47.88 196.975 48.168 196.119 48.168C195.263 48.168 194.559 47.88 194.007 47.304C193.463 46.72 193.191 45.968 193.191 45.048C193.191 44.128 193.463 43.38 194.007 42.804C194.559 42.22 195.263 41.928 196.119 41.928C196.975 41.928 197.675 42.22 198.219 42.804ZM194.751 43.416C194.415 43.832 194.247 44.376 194.247 45.048C194.247 45.72 194.415 46.264 194.751 46.68C195.095 47.096 195.551 47.304 196.119 47.304C196.687 47.304 197.139 47.1 197.475 46.692C197.811 46.276 197.979 45.728 197.979 45.048C197.979 44.368 197.811 43.824 197.475 43.416C197.139 43 196.687 42.792 196.119 42.792C195.551 42.792 195.095 43 194.751 43.416ZM204.933 48L203.025 45.372H201.933V48H200.901V42.096H201.933V44.52H203.025L204.801 42.096H205.917L203.841 44.904L206.097 48H204.933ZM212.324 43.896V48H211.388V47.268C210.972 47.884 210.304 48.192 209.384 48.192C208.736 48.192 208.22 48.052 207.836 47.772C207.46 47.492 207.272 47.08 207.272 46.536C207.272 45.904 207.508 45.444 207.98 45.156C208.468 44.86 209.148 44.636 210.02 44.484L211.34 44.244V43.944C211.34 43.584 211.212 43.3 210.956 43.092C210.708 42.884 210.376 42.78 209.96 42.78C209.6 42.78 209.276 42.856 208.988 43.008C208.708 43.152 208.384 43.408 208.016 43.776L207.356 43.188C208.068 42.348 208.924 41.928 209.924 41.928C210.676 41.928 211.264 42.108 211.688 42.468C212.112 42.82 212.324 43.296 212.324 43.896ZM211.34 45.792V45.012L210.26 45.228C209.524 45.38 209.016 45.536 208.736 45.696C208.464 45.856 208.312 46.124 208.28 46.5C208.28 46.772 208.384 46.98 208.592 47.124C208.808 47.268 209.108 47.34 209.492 47.34C210.028 47.34 210.468 47.2 210.812 46.92C211.164 46.632 211.34 46.256 211.34 45.792ZM219.743 42.096H221.255V48H220.283V45.3C220.283 45.044 220.291 44.428 220.307 43.452L220.319 42.804L219.491 45.048L218.351 48H217.439L216.311 45.048C216.079 44.456 215.799 43.712 215.471 42.816C215.503 43.68 215.519 44.508 215.519 45.3V48H214.547V42.096H216.095L217.103 44.724C217.335 45.324 217.607 46.088 217.919 47.016C218.175 46.248 218.447 45.488 218.735 44.736L219.743 42.096ZM227.558 42.096H228.674V48H227.702V45.576C227.702 44.6 227.714 43.784 227.738 43.128C227.242 43.952 226.786 44.68 226.37 45.312L224.618 48H223.514V42.096H224.486V44.712C224.486 45.488 224.474 46.224 224.45 46.92C225.074 45.912 225.526 45.2 225.806 44.784L227.558 42.096ZM235.866 48H234.834V45.372H231.966V48H230.934V42.096H231.966V44.52H234.834V42.096H235.866V48ZM238.132 48V42.096H239.164V44.076H240.844C241.508 44.076 242.04 44.256 242.44 44.616C242.848 44.968 243.052 45.444 243.052 46.044C243.052 46.644 242.848 47.12 242.44 47.472C242.04 47.824 241.508 48 240.844 48H238.132ZM239.164 47.148H240.676C241.556 47.148 241.996 46.78 241.996 46.044C241.996 45.3 241.556 44.928 240.676 44.928H239.164V47.148ZM244.852 42.096V48H243.82V42.096H244.852Z" fill="#6D6D6D"/>
</svg>
