<svg width="137" height="15" viewBox="0 0 137 15" fill="none" xmlns="http://www.w3.org/2000/svg">
<path d="M2.5 2.48V7.06H12.48V8.74H2.5V13.32H13V15H0.5V0.799999H13V2.48H2.5ZM17.4828 0.799999H19.4828V13.32H29.2028V15H17.4828V0.799999ZM33.1789 0.799999H35.1789V15H33.1789V0.799999ZM45.4142 2.48H39.2142V0.799999H53.6542V2.48H47.4142V15H45.4142V2.48ZM59.5914 2.48V7.06H69.5714V8.74H59.5914V13.32H70.0914V15H57.5914V0.799999H70.0914V2.48H59.5914ZM83.8695 2.48V7.06H93.8495V8.74H83.8695V15H81.8695V0.799999H94.3695V2.48H83.8695ZM98.7375 0.799999H100.737V15H98.7375V0.799999ZM113.953 9.84H107.933V15H105.933V0.799999H114.673C115.686 0.799999 116.566 0.999999 117.313 1.4C118.073 1.78667 118.653 2.32667 119.053 3.02C119.453 3.7 119.653 4.46667 119.653 5.32C119.653 6.38667 119.333 7.30667 118.693 8.08C118.066 8.85333 117.199 9.36667 116.093 9.62L120.253 15H117.893L113.953 9.84ZM107.933 8.16H114.053C115.159 8.16 116.026 7.93333 116.653 7.48C117.279 7.02667 117.593 6.36 117.593 5.48V5.16C117.593 4.28 117.279 3.61333 116.653 3.16C116.026 2.70667 115.159 2.48 114.053 2.48H107.933V8.16ZM126.146 2.48V7.06H136.126V8.74H126.146V13.32H136.646V15H124.146V0.799999H136.646V2.48H126.146Z" fill="white"/>
</svg>
