<?xml version="1.0" ?><!DOCTYPE svg  PUBLIC '-//W3C//DTD SVG 1.1//EN'  'http://www.w3.org/Graphics/SVG/1.1/DTD/svg11.dtd'><svg viewBox="0 0 50 50" xmlns="http://www.w3.org/2000/svg" xmlns:xlink="http://www.w3.org/1999/xlink"><style>:root>svg{display:none}:root>svg:target{display:block}</style><svg viewBox="0 0 32 32" id="arrow" xmlns="http://www.w3.org/2000/svg"><path clip-rule="evenodd" d="M32 16.009c0-.267-.11-.522-.293-.714l-9.899-9.999a.993.993 0 00-1.414 0 1.016 1.016 0 000 1.428l8.193 8.275H1c-.552 0-1 .452-1 1.01s.448 1.01 1 1.01h27.586l-8.192 8.275a1.017 1.017 0 000 1.428.994.994 0 001.414 0l9.899-9.999c.187-.189.29-.449.293-.714z" fill-rule="evenodd"/></svg><svg viewBox="0 0 50 50" id="bio" xmlns="http://www.w3.org/2000/svg"><g clip-path="url(#bclip0_64:206)"><path d="M8.021 23.725c-2.275 2.842-3.529 6.451-3.529 10.162C4.492 42.772 11.721 50 20.606 50c8.884 0 16.113-7.228 16.113-16.113 0-3.711-1.254-7.32-3.53-10.162L20.607 8.008 8.02 23.725zM33.79 33.887c0 7.27-5.914 13.183-13.183 13.183-7.27 0-13.184-5.914-13.184-13.183 0-3.048 1.025-6.006 2.886-8.33l10.298-12.861 10.297 12.86c1.861 2.325 2.886 5.283 2.886 8.33zM45.508 11.817c0-1.682-.553-3.26-1.597-4.566L38.184 0l-5.728 7.25a7.235 7.235 0 00-1.597 4.567c0 4.038 3.286 7.324 7.325 7.324 4.038 0 7.324-3.286 7.324-7.324zm-11.719 0c0-1.01.331-1.958.957-2.74l3.438-4.35 3.437 4.35c.626.782.957 1.73.957 2.74a4.4 4.4 0 01-4.395 4.394 4.4 4.4 0 01-4.394-4.394z"/></g><defs><clipPath id="bclip0_64:206"><path d="M0 0h50v50H0z"/></clipPath></defs></svg><svg viewBox="0 0 18 19" id="chevron-left" xmlns="http://www.w3.org/2000/svg"><g clip-path="url(#cclip0_199:30)"><path d="M4.344 9.505l8.326-8.303a.698.698 0 01.985.988L5.825 10l7.83 7.808a.698.698 0 11-.985.988l-8.326-8.303a.697.697 0 010-.987z"/></g><defs><clipPath id="cclip0_199:30"><path transform="matrix(-1 0 0 1 18 .999)" d="M0 0h18v18H0z"/></clipPath></defs></svg><svg viewBox="0 0 40 40" id="close" xmlns="http://www.w3.org/2000/svg"><path d="M40 2.357L37.643 0 20 17.643 2.357 0 0 2.357 17.643 20 0 37.643 2.357 40 20 22.357 37.643 40 40 37.643 22.357 20 40 2.357z"/></svg><svg viewBox="0 0 46 46" id="flame" xmlns="http://www.w3.org/2000/svg"><g clip-path="url(#eclip0_64:204)"><path d="M38.583 20.077l-.62-1.163-1.177.594c-.9.454-1.872.68-2.887.675-3.474-.02-6.3-2.905-6.3-6.43v-2.265c0-3.675-1.259-7.283-3.544-10.16L23 0 9.47 17.035a17.674 17.674 0 00-4.11 11.063c-.068 4.716 1.743 9.191 5.099 12.602 3.354 3.41 7.797 5.292 12.51 5.3H23c4.707 0 9.133-1.83 12.465-5.157a17.527 17.527 0 005.179-12.487c0-2.884-.713-5.747-2.061-8.279zm-10.8 15.753c.26 0 .523-.019.781-.06.17.55.256 1.124.256 1.715 0 1.557-.606 3.02-1.708 4.12a5.782 5.782 0 01-4.112 1.7h-.011a5.768 5.768 0 01-4.123-1.751 5.772 5.772 0 01-1.686-4.155 5.829 5.829 0 011.36-3.653l4.263-5.366c.184.54.28 1.11.28 1.686v.996c0 2.614 2.108 4.753 4.7 4.768zm5.778 3.106a15.05 15.05 0 01-2.893 2.26 8.531 8.531 0 00-.148-7.707l-.62-1.163-1.176.593a2.02 2.02 0 01-.926.216c-1.114-.006-2.02-.936-2.02-2.073v-.997a7.97 7.97 0 00-1.723-4.937L23 23.799l-6.537 8.23a8.532 8.532 0 00-1.977 5.331c-.02 1.33.271 2.62.838 3.791a15.32 15.32 0 01-2.945-2.34c-2.847-2.894-4.384-6.685-4.326-10.674.05-3.427 1.29-6.76 3.492-9.384l.011-.014L22.93 4.421a13.701 13.701 0 011.974 7.067v2.265c0 5.003 4.028 9.096 8.98 9.125a9.024 9.024 0 002.845-.442c.8 1.859 1.22 3.883 1.22 5.92a14.85 14.85 0 01-4.388 10.58z"/></g><defs><clipPath id="eclip0_64:204"><path d="M0 0h46v46H0z"/></clipPath></defs></svg><svg viewBox="0 0 30 30" id="gear" xmlns="http://www.w3.org/2000/svg"><path d="M29.331 12.389l-3.438-.846a11.341 11.341 0 00-.794-1.89l1.602-2.67a.879.879 0 00-.132-1.073l-2.486-2.486a.879.879 0 00-1.074-.132l-2.673 1.603a11.372 11.372 0 00-1.878-.788L17.611.67A.879.879 0 0016.758 0h-3.516a.879.879 0 00-.853.669l-.847 3.438c-.69.219-1.356.503-1.992.849L8.093 4.08l-1.316-.79a.879.879 0 00-1.074.133L3.217 5.91a.879.879 0 00-.132 1.073c.011.02 1.042 1.737 1.715 2.864a11.367 11.367 0 00-.693 1.694c-1.172.292-3.411.841-3.437.848a.879.879 0 00-.67.853v3.516c0 .405.277.757.67.853.026.007 2.249.552 3.438.846.21.662.48 1.305.809 1.921l-1.535 2.558a.879.879 0 00.132 1.074L6 26.496a.879.879 0 001.074.132l2.563-1.537c.61.325 1.249.594 1.907.802l.845 3.438c.096.393.449.669.853.669h3.516a.879.879 0 00.853-.669l.846-3.438a11.19 11.19 0 001.948-.828l2.604 1.563a.879.879 0 001.074-.132l2.486-2.486a.879.879 0 00.132-1.074l-1.58-2.632c.312-.591.57-1.21.772-1.847 1.044-.258 3.41-.839 3.438-.846a.879.879 0 00.669-.853v-3.516a.879.879 0 00-.669-.853zm-1.089 3.68c-1.015.25-2.855.702-3.206.79l-.066.016a.88.88 0 00-.628.624 9.55 9.55 0 01-.993 2.376.88.88 0 00.004.897l1.488 2.48-1.516 1.516-2.457-1.475a.879.879 0 00-.908.002 9.43 9.43 0 01-2.458 1.046.878.878 0 00-.622.621c-.048.18-.096.372-.097.375l-.714 2.905H13.93l-.633-2.58-.171-.684a.879.879 0 00-.626-.636 9.608 9.608 0 01-2.429-1.022.88.88 0 00-.895-.001c-.19.112-1.597.956-2.42 1.449l-1.515-1.516 1.445-2.408a.879.879 0 00.001-.902 9.516 9.516 0 01-1.027-2.44.879.879 0 00-.637-.628c-.629-.158-2.318-.573-3.266-.805V13.93a786.11 786.11 0 003.267-.807.88.88 0 00.634-.626 9.608 9.608 0 01.915-2.243.879.879 0 00-.01-.882 1454.48 1454.48 0 00-1.619-2.705L6.46 5.152l.728.437 1.901 1.14c.28.167.628.166.907-.003A9.609 9.609 0 0112.5 5.658a.879.879 0 00.626-.635l.804-3.265h2.138l.804 3.265c.078.31.318.553.626.635a9.612 9.612 0 012.405 1.008c.277.163.62.163.896 0l2.525-1.514 1.516 1.515-1.512 2.52a.879.879 0 00-.002.9 9.584 9.584 0 011.014 2.41c.081.303.317.54.62.622.18.049.373.097.376.098l2.905.714v2.138z"/></svg><svg viewBox="0 0 20 20" id="hose-u" xmlns="http://www.w3.org/2000/svg"><g clip-path="url(#gclip0_71:302)"><path d="M19.414 0h-5a.586.586 0 00-.586.585V2.93c0 .324.262.586.586.586h.742V11.367a5.129 5.129 0 01-3.76 4.934 5.278 5.278 0 01-3.662-.328 5.115 5.115 0 01-2.89-4.607v-6.09-1.761h.742a.586.586 0 00.586-.586V.585A.586.586 0 005.586 0h-5A.586.586 0 000 .585V2.93c0 .324.262.586.586.586h.742v7.852c0 2.237.89 4.417 2.45 6.02a8.674 8.674 0 005.972 2.61c2.255.054 4.457-.743 6.123-2.273a8.677 8.677 0 002.799-6.357V3.515h.742A.586.586 0 0020 2.93V.585A.586.586 0 0019.414 0zM1.172 1.17H5v1.172H1.172V1.171zm2.5 2.344v1.172H2.5V3.515h1.172zm13.836 7.852c-.044.76-.15 1.51-.375 2.244a7.416 7.416 0 01-2.57 3.69c-2.046 1.563-4.889 1.955-7.287 1.027a7.542 7.542 0 01-4.396-4.61 7.457 7.457 0 01-.38-2.351V5.859h1.172v5.508a6.347 6.347 0 003.172 5.46c2.108 1.209 4.87 1.09 6.847-.337a6.326 6.326 0 002.287-3.138c.782-2.386.104-4.993.371-7.49l1.168-.001c-.158 1.823.094 3.692-.01 5.506zm-.008-6.68h-1.172V3.515H17.5v1.172zm1.328-2.344H15V1.171h3.828v1.172z"/></g><defs><clipPath id="gclip0_71:302"><path d="M0 0h20v20H0z"/></clipPath></defs></svg><svg viewBox="0 0 24 24" stroke-width="2" stroke-linecap="round" stroke-linejoin="round" class="hfeather hfeather-info" id="info" xmlns="http://www.w3.org/2000/svg"><circle cx="12" cy="12" r="10"/><path d="M12 16v-4M12 8"/></svg><svg viewBox="0 0 18 18" id="phone-link" xmlns="http://www.w3.org/2000/svg"><path d="M15.51 12.528c-1.088-.93-2.192-1.493-3.266-.565l-.641.562c-.47.407-1.342 2.31-4.715-1.57-3.372-3.875-1.365-4.478-.895-4.882l.644-.562c1.069-.931.666-2.103-.105-3.309l-.465-.73C5.293.268 4.45-.522 3.379.408L2.8.913C2.327 1.258 1.003 2.38.682 4.51c-.386 2.556.832 5.482 3.625 8.693 2.788 3.212 5.519 4.825 8.105 4.797 2.15-.023 3.448-1.176 3.854-1.595l.58-.507c1.069-.929.405-1.874-.683-2.806l-.654-.563z"/></svg><svg viewBox="0 0 30 30" id="plane" xmlns="http://www.w3.org/2000/svg"><path d="M30 3.57a3.507 3.507 0 00-1.035-2.535A3.506 3.506 0 0026.43 0c-.957.01-1.85.396-2.512 1.087l-5.252 5.472L4.926 2.01.87 6.07l11.482 7.07-4.725 4.924-3.708-.609L0 21.372l6.39 2.238L8.628 30l3.918-3.918-.609-3.708 4.924-4.725 7.07 11.482 4.058-4.057-4.547-13.74 5.471-5.251A3.507 3.507 0 0030 3.57zm-2.305 1.243l-6.273 6.02 4.555 13.764-1.716 1.716-7.045-11.443-7.165 6.875.613 3.731-1.3 1.3L7.77 22.23l-4.547-1.592 1.3-1.3 3.73.612 6.877-7.165L3.686 5.74l1.716-1.716 13.764 4.555 6.02-6.273a1.76 1.76 0 011.261-.545h.02c.473 0 .918.184 1.253.52.34.339.524.79.52 1.271-.006.481-.2.93-.546 1.262z"/></svg><svg viewBox="0 0 20 20" id="plus" xmlns="http://www.w3.org/2000/svg"><rect width="20" height="20" rx="2"/><g clip-path="url(#kclip0_1068:2)"><path d="M13.562 9.376h-2.937V6.444a.442.442 0 00-.437-.443h-.376a.443.443 0 00-.437.443v2.932H6.438A.437.437 0 006 9.812v.378c0 .242.196.436.438.436h2.937v2.943c0 .24.196.432.437.432h.376a.433.433 0 00.437-.432v-2.943h2.937A.437.437 0 0014 10.19v-.378a.437.437 0 00-.438-.436z"/></g><defs><clipPath id="kclip0_1068:2"><path transform="translate(6 6)" d="M0 0h8v8H0z"/></clipPath></defs></svg><svg viewBox="0 0 20 20" id="power-button" xmlns="http://www.w3.org/2000/svg"><g clip-path="url(#lclip0_71:295)"><path d="M8.889 0h2.222v11.11H8.89V0z"/><path d="M15 1.338l-1.112 1.924A7.808 7.808 0 0117.778 10c0 4.288-3.49 7.777-7.778 7.777-4.289 0-7.778-3.489-7.778-7.777 0-2.769 1.49-5.35 3.89-6.738L4.999 1.338A10.037 10.037 0 000 10c0 5.514 4.486 10 10 10s10-4.486 10-10c0-3.56-1.916-6.878-5-8.662z"/></g><defs><clipPath id="lclip0_71:295"><path d="M0 0h20v20H0z"/></clipPath></defs></svg></svg>