<svg width="18" height="19" viewBox="0 0 18 19" fill="none" xmlns="http://www.w3.org/2000/svg">
<g clip-path="url(#clip0_199:30)">
<path d="M4.34444 9.50459L12.67 1.20209C12.9427 0.930223 13.3844 0.93068 13.6567 1.20349C13.9288 1.47627 13.9281 1.91814 13.6553 2.19022L5.82532 9.99857L13.6556 17.8069C13.9283 18.079 13.9291 18.5206 13.657 18.7934C13.5205 18.9302 13.3416 18.9985 13.1628 18.9985C12.9844 18.9985 12.8063 18.9306 12.67 18.7948L4.34444 10.4925C4.21306 10.3618 4.13934 10.1839 4.13934 9.99857C4.13934 9.81322 4.21327 9.63554 4.34444 9.50459Z" fill="#FFCF7A"/>
</g>
<defs>
<clipPath id="clip0_199:30">
<rect width="18" height="18" fill="white" transform="matrix(-1 0 0 1 18 0.998535)"/>
</clipPath>
</defs>
</svg>
