<svg width="20" height="20" viewBox="0 0 20 20" fill="none" xmlns="http://www.w3.org/2000/svg">
<rect y="-0.000183105" width="20" height="20" rx="2" fill="#ECCF94"/>
<g clip-path="url(#clip0_1068:2)">
<path d="M13.562 9.37594H13.5625H10.625V6.44397C10.625 6.20267 10.4296 6.00092 10.1883 6.00092H9.81242C9.57119 6.00092 9.37496 6.20267 9.37496 6.44397V9.37594H6.43753C6.19636 9.37594 6 9.57106 6 9.81243V10.1904C6 10.4316 6.19629 10.6259 6.43753 10.6259H9.37502V13.5685C9.37502 13.8096 9.57119 14.0008 9.81249 14.0008H10.1884C10.4297 14.0008 10.625 13.8096 10.625 13.5685V10.6259H13.562C13.8033 10.6259 14 10.4315 14 10.1904V9.81243C14 9.57106 13.8033 9.37594 13.562 9.37594Z" fill="#191919"/>
</g>
<defs>
<clipPath id="clip0_1068:2">
<rect width="8" height="8" fill="white" transform="translate(6 6)"/>
</clipPath>
</defs>
</svg>
